<svg width="130" height="130" viewBox="0 0 130 130" fill="none" xmlns="http://www.w3.org/2000/svg">
<path d="M67.1599 40.9164C67.1599 56.3948 54.5598 68.9562 38.9999 68.9562C23.44 68.9562 10.8399 56.3948 10.8399 40.9164C10.8399 25.4379 23.44 12.8765 38.9999 12.8765C54.5598 12.8765 67.1599 25.4379 67.1599 40.9164Z" stroke="#DA2E29" stroke-width="4"/>
<line x1="10" y1="41" x2="68" y2="41" stroke="#DA2E29" stroke-width="4"/>
<circle r="13" transform="matrix(0.94013 -0.340816 0.343227 0.939252 22.3702 94.3503)" stroke="#C9C9C9" stroke-width="4"/>
<line y1="-2" x2="28" y2="-2" transform="matrix(0.94013 -0.340816 0.343227 0.939252 10 100.543)" stroke="#C9C9C9" stroke-width="4"/>
<circle r="13" transform="matrix(0.94013 0.340816 -0.343227 0.939252 93.4511 23.8624)" stroke="#C9C9C9" stroke-width="4"/>
<line y1="-2" x2="29" y2="-2" transform="matrix(0.94013 0.340816 -0.343227 0.939252 79 21)" stroke="#C9C9C9" stroke-width="4"/>
<line y1="-2" x2="37.6328" y2="-2" transform="matrix(0.708517 0.705694 -0.708517 0.705694 68.496 70.3366)" stroke="#DA2E29" stroke-width="4"/>
<path d="M112.474 79.8708L78.1101 114.097C70.8575 121.321 59.0986 121.321 51.846 114.097C44.5933 106.874 44.5933 95.1617 51.846 87.9379L86.2095 53.7113C93.4622 46.4875 105.221 46.4875 112.474 53.7113C119.726 60.935 119.726 72.647 112.474 79.8708Z" stroke="#DA2E29" stroke-width="4"/>
</svg>
