<svg width="228" height="208" viewBox="0 0 228 208" fill="none" xmlns="http://www.w3.org/2000/svg">
<path d="M132.015 31.5443C133.685 18.7987 144.855 9.47457 157.686 10.1048L158.966 10.1649C172.676 11.6555 179.076 24.1311 177.206 37.7971L172.936 83.5073L172.706 85.7283L166.506 109.048L134.505 99.544L140.005 90.54L141.275 78.8352C141.275 78.8352 128.155 76.124 128.655 62.8882C128.905 56.5254 130.465 43.3996 132.015 31.5443Z" fill="#FFBE9D"/>
<path d="M141.185 78.8352C141.185 78.8352 149.594 79.7656 158.754 74.6234C158.754 74.6234 154.204 83.9375 141.084 82.0866L141.185 78.8352Z" fill="#EB996E"/>
<path d="M134.885 44.41C134.795 45.4004 135.575 46.3009 136.615 46.4009C137.655 46.511 138.565 45.7906 138.645 44.8002C138.725 43.8098 137.955 42.9094 136.925 42.7993C135.875 42.6893 134.965 43.4096 134.885 44.41Z" fill="#263238"/>
<path d="M134.535 38.1565C134.755 38.4165 136.235 37.4265 138.265 37.5365C140.295 37.6165 141.735 38.7365 141.965 38.4965C142.075 38.3965 141.865 37.9365 141.235 37.4265C140.615 36.9265 139.555 36.4165 138.285 36.3565C137.015 36.2965 135.935 36.7165 135.295 37.1565C134.665 37.6065 134.425 38.0465 134.535 38.1565Z" fill="#263238"/>
<path d="M152.805 45.6206C152.725 46.611 153.495 47.5114 154.535 47.6114C155.575 47.7215 156.484 47.0011 156.564 46.0007C156.644 45.0103 155.875 44.1099 154.845 43.9998C153.805 43.9098 152.895 44.6301 152.805 45.6206Z" fill="#263238"/>
<path d="M154.484 39.527C154.704 39.787 156.194 38.797 158.224 38.907C160.254 38.987 161.694 40.1071 161.924 39.8671C162.034 39.7671 161.824 39.3071 161.194 38.7971C160.574 38.2971 159.514 37.7871 158.244 37.7271C156.974 37.6671 155.894 38.087 155.254 38.527C154.604 38.977 154.374 39.417 154.484 39.527Z" fill="#263238"/>
<path d="M146.365 54.2343C146.385 54.1143 145.125 53.8342 143.095 53.474C142.575 53.394 142.095 53.2639 142.025 52.9038C141.925 52.5236 142.165 51.9733 142.445 51.3831C142.995 50.1525 143.575 48.862 144.175 47.5114C146.585 41.9889 148.355 37.4469 148.135 37.3469C147.915 37.2568 145.775 41.6488 143.365 47.1712C142.785 48.5318 142.225 49.8324 141.695 51.0729C141.465 51.6532 141.095 52.3035 141.325 53.0939C141.445 53.484 141.815 53.7842 142.145 53.8942C142.475 54.0143 142.765 54.0343 143.015 54.0643C145.075 54.2744 146.345 54.3444 146.365 54.2343Z" fill="#263238"/>
<path d="M144.824 59.4401C145.084 59.6466 146.333 57.8189 148.781 57.5943C151.226 57.3559 153.028 58.8942 153.215 58.6454C153.323 58.5469 153.024 58.0003 152.222 57.4148C151.437 56.8397 150.083 56.2921 148.59 56.4328C147.096 56.5735 145.96 57.3557 145.387 58.0607C144.796 58.7776 144.69 59.3702 144.824 59.4401Z" fill="#263238"/>
<path d="M154.355 31.5443C154.525 32.1046 156.565 31.9445 158.935 32.3547C161.315 32.7149 163.195 33.5052 163.535 33.025C163.685 32.7949 163.375 32.2546 162.625 31.6844C161.885 31.1141 160.675 30.5439 159.255 30.3138C157.835 30.0837 156.515 30.2438 155.625 30.5539C154.745 30.864 154.285 31.2742 154.355 31.5443Z" fill="#83534B"/>
<path d="M135.575 32.3147C135.905 32.7949 137.335 32.3847 139.015 32.4447C140.705 32.4447 142.105 32.9049 142.455 32.4447C142.615 32.2146 142.405 31.7444 141.805 31.2742C141.215 30.804 140.205 30.4038 139.045 30.3838C137.885 30.3638 136.865 30.734 136.255 31.1742C135.645 31.6144 135.425 32.0846 135.575 32.3147Z" fill="#83534B"/>
<path d="M133.595 25.5517C133.595 25.5517 137.495 17.4481 141.575 15.7073C146.525 13.6064 148.335 19.0188 153.005 17.9583C157.676 16.8979 162.396 14.887 166.926 18.6786C171.886 22.8305 169.336 25.4416 169.356 31.3242C169.466 55.1748 173.476 62.1178 175.266 50.9729C175.466 49.7524 178.916 48.942 179.676 43.7797C180.666 37.0868 181.326 28.9332 180.066 24.091C179.006 20.0092 176.846 17.1079 172.886 13.8465C166.636 8.68422 157.726 8.14397 151.645 8.4441C145.565 8.76425 133.555 15.1571 133.595 25.5517Z" fill="#83534B"/>
<path d="M172.245 48.5214C171.446 49.0103 168.79 37.0441 166.668 28.8793C165.709 25.1876 165.361 17.6447 166.505 14.0062L172.245 15.5069L174.79 15.1647C179.802 14.4907 184.595 17.4415 186.251 22.2203C187.803 26.6998 187.813 31.5694 186.279 36.0552L181.505 50.0221C181.505 50.0221 173.065 49.9321 172.245 48.5214Z" fill="#83534B"/>
<path d="M165.005 8.00354C159.505 6.00265 139.504 11.0049 135.504 2.00088C135.504 4.50199 135.504 4.50199 135.504 7.50332C133.434 6.13271 130.834 3.00133 130.004 0C130.504 3.00133 129.504 9.00398 130.004 13.0057C130.746 17.0899 132.04 22.0009 132.657 24.2611C132.871 25.046 133.466 25.6652 134.238 25.9226C134.414 25.9814 134.599 26.0099 134.785 26.0067L159.533 25.5871C162.477 25.5372 165.372 24.8275 168.005 23.5104C169.068 22.5581 175.377 17.4413 175.006 13.506C174.741 10.7025 166.943 8.70837 165.005 8.00354Z" fill="#83534B"/>
<path d="M166.006 24.0105L168.961 18.4671C169.626 17.2193 170.788 16.3116 172.16 15.9686L174.006 15.5069L171.914 16.4039C170.996 16.7973 170.217 17.4564 169.678 18.2964L166.006 24.0105Z" fill="#A5695F"/>
<path d="M174.446 50.5727C174.626 48.5318 176.466 47.0112 178.486 47.3113C180.936 47.6715 183.616 49.2021 183.196 54.2944C182.456 63.3184 173.556 60.7172 173.556 60.4571C173.566 60.277 174.106 54.3544 174.446 50.5727Z" fill="#FFBE9D"/>
<path d="M175.806 57.2157C175.846 57.1857 175.956 57.3357 176.206 57.4858C176.456 57.6258 176.896 57.7459 177.376 57.6058C178.356 57.3357 179.286 55.8851 179.456 54.2644C179.546 53.444 179.436 52.6536 179.196 51.9733C178.976 51.293 178.586 50.7928 178.116 50.6728C177.646 50.5227 177.286 50.7828 177.156 51.0229C177.016 51.263 177.056 51.4531 177.006 51.4631C176.976 51.4831 176.826 51.2931 176.926 50.9329C176.976 50.7528 177.106 50.5527 177.326 50.3927C177.556 50.2326 177.886 50.1726 178.216 50.2326C178.906 50.3326 179.486 51.0329 179.746 51.7633C180.046 52.5036 180.186 53.404 180.086 54.3244C179.876 56.1352 178.806 57.7659 177.476 58.036C176.826 58.1461 176.316 57.916 176.056 57.6759C175.806 57.4358 175.776 57.2357 175.806 57.2157Z" fill="#EB996E"/>
<path d="M166 37L169.578 44.0362C170.413 45.6796 170.022 47.681 168.629 48.8885C167.12 50.1959 164.88 50.1959 163.371 48.8885C161.978 47.681 161.587 45.6796 162.422 44.0362L166 37Z" fill="#F3F6F9"/>
<path d="M98.0031 134.559L117.386 138.956L106.003 184.582L85.5029 179.079L98.0031 134.559Z" fill="#FFBE9D"/>
<path d="M98.0029 134.559C104.003 120.275 103.409 110.227 106.994 103.136C111.278 94.6596 120.422 92.9073 126.004 92.5409C126.004 114.832 197.506 96.5427 197.506 96.5427C197.506 96.5427 199.141 96.6332 202.006 97.5431C206.552 98.9868 212.071 95.0531 216.039 115.306C220.007 135.56 223.007 153.244 223.007 153.244L189.062 162.662L185.534 153.244L129.238 166.574L117.504 139.061L98.0029 134.559Z" fill="black"/>
<path d="M202.007 97.5431L172.506 86.0984L171.932 88.0254C169.846 95.0398 163.85 100.186 156.601 101.187L155.958 101.275C154.662 101.454 153.348 101.451 152.054 101.266L148.918 100.818C143.804 100.087 140.005 95.7065 140.005 90.54L126.004 92.5409L118.234 116.902L115.914 174.458L116.124 189.404L202.427 189.974L201.727 165.504L202.007 97.5431Z" fill="black"/>
<path d="M159.005 168.575L201.506 171.576L197.082 138.802L219.007 130.558C219.007 130.558 226.344 161.452 227.407 168.635C229.325 181.521 226.9 194.296 215.507 195.586C204.006 195.586 176.506 186.582 157.005 184.582L159.005 168.575Z" fill="#FFBE9D"/>
<path d="M191.799 121.554C191.826 121.556 191.907 121.767 192.034 122.15C192.159 122.57 192.333 123.121 192.528 123.784C192.931 125.197 193.476 127.086 194.074 129.171C194.69 131.275 195.206 133.181 195.537 134.563C195.704 135.252 195.83 135.814 195.911 136.2C195.992 136.585 196.018 136.798 195.99 136.801C195.962 136.8 195.882 136.589 195.755 136.205C195.63 135.785 195.456 135.234 195.261 134.571C194.848 133.158 194.295 131.273 193.687 129.183C193.081 127.079 192.593 125.17 192.261 123.788C192.112 123.123 191.984 122.575 191.887 122.151C191.806 121.766 191.771 121.553 191.799 121.554Z" fill="#263238"/>
<path d="M200.28 98.5452C200.33 98.6053 199.44 99.3056 198.18 100.596C196.92 101.887 195.33 103.848 194.02 106.279C192.72 108.71 191.96 111.111 191.58 112.882C191.19 114.652 191.1 115.783 191.03 115.773C191 115.773 191 115.493 191.02 114.972C191.04 114.462 191.12 113.722 191.28 112.822C191.59 111.021 192.32 108.55 193.64 106.069C194.97 103.597 196.63 101.627 197.96 100.376C198.63 99.7458 199.19 99.2655 199.61 98.9754C200.03 98.6853 200.26 98.5252 200.28 98.5452Z" fill="#263238"/>
<path d="M117.573 128.565C117.693 128.569 117.715 130.81 117.618 133.571C117.522 136.333 117.344 138.567 117.224 138.563C117.104 138.559 117.082 136.317 117.179 133.556C117.275 130.795 117.453 128.56 117.573 128.565Z" fill="#263238"/>
<path d="M123.623 95.5426C123.683 95.5826 123.193 96.413 122.563 97.8236C121.933 99.2342 121.213 101.245 120.783 103.556C120.363 105.867 120.323 108.008 120.413 109.549C120.503 111.089 120.663 112.04 120.593 112.05C120.563 112.06 120.493 111.82 120.403 111.4C120.303 110.979 120.203 110.349 120.113 109.569C119.943 108.018 119.933 105.827 120.363 103.476C120.803 101.125 121.583 99.0842 122.293 97.6936C122.643 96.9932 122.963 96.453 123.213 96.0928C123.443 95.7227 123.593 95.5326 123.623 95.5426Z" fill="#263238"/>
<path d="M207.738 183.314C207.875 183.189 205.778 181.181 204.231 178.027C202.646 174.898 202.304 172.007 202.118 172.047C201.975 172.032 202.068 175.041 203.706 178.295C205.314 181.543 207.67 183.432 207.738 183.314Z" fill="#EB996E"/>
<path d="M46.5887 180.926C47.0201 180.699 47.5005 180.58 47.9883 180.58H141.773C145.062 180.58 145.954 185.109 142.91 186.356L116.05 197.363C115.689 197.511 115.303 197.587 114.912 197.587H27.1185C23.9879 197.587 22.9499 193.394 25.7189 191.934L46.5887 180.926Z" fill="#263238"/>
<line y1="-0.5" x2="20.0085" y2="-0.5" transform="matrix(0.190734 0.981642 -0.981613 0.190884 113.832 180.612)" stroke="white"/>
<path d="M159.005 168.574L130.393 163.37L119.626 168.787L109.991 178.314C109.991 178.314 110.834 180.353 113.323 179.869L109.548 183.115C109.548 183.115 110.313 185.743 113.253 184.926L110.812 187.578C110.812 187.578 114.258 189.512 116.977 186.533C119.697 183.553 124.881 179.58 124.881 179.58L132.727 178.393L124.242 184.355L119.136 190.058C119.136 190.058 119.518 192.185 121.147 191.516C122.776 190.847 127.68 186.509 127.68 186.509L136.947 183.162C136.947 183.162 143.029 185.067 144.902 185.408C146.782 185.757 153.224 184.134 153.224 184.134L157.005 184.582L159.005 168.574Z" fill="#FFBE9D"/>
<path d="M109.561 183.117C109.636 183.198 110.76 182.248 112.54 180.657C114.306 179.064 116.721 176.822 119.348 174.33C120.221 173.497 121.071 172.682 121.857 171.915L121.74 171.992C124.338 170.959 126.57 170.042 128.145 169.351C129.726 168.669 130.642 168.219 130.609 168.144C130.576 168.068 129.597 168.352 127.975 168.915C126.352 169.478 124.081 170.312 121.475 171.301L121.407 171.327L121.35 171.384C120.543 172.141 119.702 172.95 118.814 173.781C116.186 176.287 113.835 178.581 112.162 180.278C110.491 181.962 109.484 183.049 109.561 183.117Z" fill="#EB996E"/>
<path d="M111.415 186.952C111.492 187.019 112.493 186.138 114.048 184.632C115.608 183.133 117.713 181.028 120.009 178.664C120.802 177.841 121.57 177.051 122.283 176.303L122.12 176.403C126.926 175.013 130.399 173.889 130.351 173.711C130.309 173.542 126.759 174.385 121.922 175.685L121.827 175.708L121.753 175.777C121.027 176.522 120.253 177.305 119.453 178.119C117.157 180.484 115.109 182.646 113.65 184.244C112.196 185.849 111.332 186.877 111.415 186.952Z" fill="#EB996E"/>
<path d="M0.236744 131.171L16.4434 192.429C17.3339 195.83 20.4425 198.163 23.9559 198.098L107.888 196.446C112.664 196.349 116.177 191.927 115.19 187.262L102.82 128.596C102.075 125.065 98.9667 122.554 95.3724 122.554H6.85867C2.3577 122.554 -0.928976 126.814 0.236744 131.171Z" fill="#263238"/>
<path d="M55.09 147.239C57.3727 148.356 58.4089 150.899 57.4051 152.924C56.4175 154.949 53.7624 155.677 51.4796 154.56C49.1968 153.442 48.1607 150.899 49.1644 148.875C50.1682 146.85 52.8072 146.121 55.09 147.239Z" fill="white"/>
</svg>
