<svg width="39" height="38" viewBox="0 0 39 38" fill="none" xmlns="http://www.w3.org/2000/svg">
<path d="M18.5489 0.927053C18.8483 0.00574193 20.1517 0.00574008 20.4511 0.927051L24.3271 12.8561C24.4609 13.2682 24.8449 13.5471 25.2781 13.5471H37.8211C38.7898 13.5471 39.1926 14.7867 38.4089 15.3561L28.2614 22.7287C27.9109 22.9834 27.7642 23.4347 27.8981 23.8467L31.7741 35.7758C32.0735 36.6971 31.019 37.4633 30.2353 36.8939L20.0878 29.5213C19.7373 29.2666 19.2627 29.2666 18.9122 29.5213L8.76473 36.8939C7.98102 37.4633 6.92654 36.6971 7.22589 35.7758L11.1019 23.8467C11.2358 23.4347 11.0891 22.9834 10.7386 22.7287L0.591127 15.3561C-0.192586 14.7867 0.210188 13.5471 1.17891 13.5471H13.7219C14.1551 13.5471 14.5391 13.2682 14.6729 12.8561L18.5489 0.927053Z" fill="#FCE053"/>
</svg>
